<svg id="Capa_1" enable-background="new 0 0 501 501" height="512" viewBox="0 0 501 501" width="512" xmlns="http://www.w3.org/2000/svg"><path d="m490 256c0 135.31-109.69 245-245 245s-245-109.69-245-245 109.69-245 245-245 245 109.69 245 245z" fill="#62dafa"/><path d="m400.48 346h72.46c-35.872 90.779-124.406 155-227.94 155-30.007 0-58.755-5.395-85.325-15.267-30.475-11.323-50.675-40.43-50.675-72.94v-66.793h221.48c2.761 0 5-2.239 5-5v-6c0-13.807 11.193-25 25-25h10c13.807 0 25 11.193 25 25v6c0 2.761 2.239 5 5 5z" fill="#003278"/><path d="m189 494.57c-24.667-5.768-47.9-15.262-69.074-27.857-6.818-4.056-10.926-11.472-10.926-19.405v-101.308h80z" fill="#012d4e"/><path d="m150 170c2.761 0 5 2.239 5 5v195h-103.443c-15.118 0-28.631-9.279-34.229-23.322-11.18-28.047-17.328-58.645-17.328-90.678 0-103.534 64.221-192.068 155-227.941v76.941c0 2.761-2.239 5-5 5h-6c-13.807 0-25 11.193-25 25v10c0 13.807 11.193 25 25 25z" fill="#0055c7"/><path d="m155 346v99c0 2.761-2.239 5-5 5h-6c-10.991 0-20.325 7.092-23.675 16.95-46.537-27.564-83.167-70.088-103.266-120.95h26.941c2.761 0 5-2.239 5-5v-6c0-13.807 11.193-25 25-25h10c13.807 0 25 11.193 25 25v6c0 2.761 2.239 5 5 5z" fill="#f1ca50"/><path d="m501 275.391v.045c0 2.46-1.994 4.454-4.454 4.454h-96.066c-2.761 0-5-2.239-5-5v-10c0-13.807-11.193-25-25-25h-10c-13.807 0-25 11.193-25 25v10c0 2.761-2.239 5-5 5h-95.52c-2.761 0-5-2.239-5-5v-270.397c0-2.545 2.115-4.573 4.659-4.49 147.937 4.83 266.381 126.276 266.381 275.388z" fill="#fd3980"/><path d="m259 1.874v278.015h-24.039c-2.761 0-5-2.239-5-5v-100c0-2.761-2.239-5-5-5h-10.961c-13.807 0-25-11.193-25-25v-10c0-13.807 11.193-25 25-25h10.961c2.761 0 5-2.239 5-5v-100.396c0-2.548 2.118-4.573 4.664-4.49 8.221.268 16.351.897 24.375 1.871z" fill="#c43286"/><path d="m369 89.889h-30c-22.091 0-40 17.909-40 40v10c0 12.632 5.855 23.896 15 31.226v18.774c0 5.523 4.477 10 10 10s10-4.477 10-10v-10.31c1.638.204 3.307.31 5 .31h5v10c0 5.523 4.477 10 10 10s10-4.477 10-10v-10h5c1.693 0 3.362-.106 5-.31v10.31c0 5.523 4.477 10 10 10s10-4.477 10-10v-18.774c9.145-7.33 15-18.594 15-31.226v-10c0-22.091-17.909-40-40-40zm-32 60h-10c-5.523 0-10-4.477-10-10v-10c0-5.523 4.477-10 10-10h10c5.523 0 10 4.477 10 10v10c0 5.523-4.477 10-10 10zm22 20h-10c-2.761 0-5-2.239-5-5s2.239-5 5-5h10c2.761 0 5 2.239 5 5s-2.239 5-5 5zm32-30c0 5.523-4.477 10-10 10h-10c-5.523 0-10-4.477-10-10v-10c0-5.523 4.477-10 10-10h10c5.523 0 10 4.477 10 10z" fill="#fff5f5"/></svg>