<svg height="512pt" viewBox="0 0 512 512.00001" width="512pt" xmlns="http://www.w3.org/2000/svg"><path d="m512 256c0 55.808594-17.855469 107.445312-48.179688 149.515625-4.628906 6.425781-9.539062 12.621094-14.742187 18.578125-9.039063 10.386719-18.914063 20.019531-29.5 28.828125-1.503906 1.242187-3.019531 2.476563-4.542969 3.6875-32.195312 25.570313-70.6875 43.542969-112.777344 51.210937-.011718 0-.011718 0-.019531 0-6.15625 1.128907-12.382812 2.027344-18.683593 2.695313-4.691407.511719-9.425782.898437-14.191407 1.140625-4.417969.230469-8.878906.34375-13.363281.34375-1.140625 0-2.265625-.011719-3.40625-.019531-17.273438-.230469-34.125-2.164063-50.417969-5.652344-.144531-.035156-.300781-.066406-.449219-.097656-50.289062-10.855469-95.085937-36.484375-129.617187-72.128907-11.902344-12.285156-22.582031-25.753906-31.847656-40.21875-25.488281-39.796874-40.261719-87.109374-40.261719-137.882812 0-141.386719 114.613281-256 256-256s256 114.613281 256 256zm0 0" fill="#30a4c7"/><path d="m274.496094 449.578125v29.246094c-22.238282 12.621093-46.5625 22.003906-72.320313 27.503906-.144531-.035156-.300781-.066406-.449219-.097656-50.289062-10.855469-95.085937-36.484375-129.617187-72.128907-11.902344-12.285156-22.582031-25.753906-31.847656-40.21875 15.839843-21.921874 40.8125-36.808593 69.347656-39.117187 2.570313-.210937 5.164063-.316406 7.785156-.316406h61.953125c7.324219 0 14.449219.816406 21.292969 2.382812 42.296875 9.675781 73.855469 47.53125 73.855469 92.746094zm0 0" fill="#93bfd9"/><path d="m274.496094 449.578125v29.246094c-22.246094 12.621093-46.5625 22.003906-72.320313 27.503906-.144531-.035156-.300781-.066406-.449219-.097656-50.289062-10.855469-95.085937-36.484375-129.617187-72.128907.21875-1.410156.480469-2.800781.773437-4.1875 2.714844-12.957031 8.074219-24.933593 15.484376-35.359374 17.242187-24.273438 45.589843-40.105469 77.625-40.105469h13.355468c52.558594 0 95.148438 42.589843 95.148438 95.128906zm0 0" fill="#d1e6f2"/><path d="m148.367188 393.394531-42.828126 23.800781-13.03125-60.601562 26.613282-15.675781" fill="#93bfd9"/><path d="m148.367188 393.394531 42.832031 23.800781 13.027343-60.601562-26.613281-15.675781" fill="#93bfd9"/><path d="m182.316406 317.800781v41.65625c0 15.25-10.054687 28.140625-23.90625 32.421875-3.167968.984375-6.546875 1.515625-10.042968 1.515625-18.742188 0-33.9375-15.191406-33.9375-33.9375v-41.65625zm0 0" fill="#d38051"/><path d="m182.316406 356.820312v2.636719c0 15.25-10.054687 28.140625-23.90625 32.421875-12.496094-3.839844-21.890625-14.707031-23.625-28 2.265625.136719 4.546875.207032 6.835938.207032 6.421875 0 12.71875-.507813 18.851562-1.515626 7.554688-1.214843 14.855469-3.160156 21.84375-5.75zm0 0" fill="#ea9a69"/><path d="m274.496094 449.578125v29.246094c-14.902344 8.453125-30.730469 15.453125-47.304688 20.816406v-50.0625zm0 0" fill="#f6c7a5"/><path d="m449.859375 350.324219c-25.265625 18.042969-11.628906 53.550781-.78125 73.769531-9.039063 10.386719-18.914063 20.019531-29.5 28.828125-1.503906 1.242187-3.019531 2.476563-4.542969 3.6875l-49.8125 20.144531-118.074218-66.871094 20.480468-177.121093 186.714844 32.621093c15.304688 15.308594 32.085938 58.816407-4.484375 84.941407zm0 0" fill="#ffb93b"/><path d="m463.820312 405.515625c-37.898437 52.589844-95.273437 90.214844-161.5625 102.304687-.011718 0-.011718 0-.019531 0-2.351562-.417968-4.691406-.886718-7.023437-1.378906-7.804688-1.652344-15.464844-3.65625-22.988282-5.996094-.417968-.136718-.835937-.261718-1.253906-.398437-.28125-.085937-.554687-.179687-.835937-.273437-16.726563-5.359376-32.714844-12.421876-47.75-20.949219v-29.246094c0-35.285156 19.203125-66.089844 47.75-82.503906 7.742187-4.464844 16.164062-7.859375 25.078125-9.992188 4.710937-1.136719 9.5625-1.921875 14.523437-2.316406 2.570313-.210937 5.164063-.316406 7.785157-.316406h61.953124c7.324219 0 14.449219.816406 21.292969 2.382812.347657.085938.691407.15625 1.023438.242188 8.914062 2.140625 17.335937 5.535156 25.078125 10 15.675781 9.027343 28.539062 22.378906 36.949218 38.441406zm0 0" fill="#eaaf8c"/><path d="m463.820312 405.515625c-37.898437 52.589844-95.273437 90.214844-161.5625 102.304687-10.667968-1.933593-21.105468-4.546874-31.285156-7.773437v-50.46875c0-52.539063 42.601563-95.128906 95.148438-95.128906h13.355468c36.652344 0 68.449219 20.710937 84.34375 51.066406zm0 0" fill="#f6c7a5"/><path d="m382.445312 317.800781v41.65625c0 15.25-10.054687 28.140625-23.90625 32.421875-3.167968.984375-6.546874 1.515625-10.042968 1.515625-18.742188 0-33.9375-15.191406-33.9375-33.9375v-41.65625zm0 0" fill="#eaaf8c"/><path d="m382.445312 356.820312v2.636719c0 15.25-10.054687 28.140625-23.90625 32.421875-12.496093-3.839844-21.890624-14.707031-23.625-28 2.265626.136719 4.546876.207032 6.835938.207032 6.421875 0 12.71875-.507813 18.847656-1.515626 7.558594-1.214843 14.859375-3.160156 21.847656-5.75zm0 0" fill="#f6c7a5"/><path d="m253.859375 249.535156c0 15.710938-11.476563 28.742188-26.507813 31.160156-1.644531.265626-3.332031.402344-5.058593.402344-17.433594 0-31.5625-14.125-31.5625-31.5625s14.128906-31.566406 31.5625-31.566406c1.726562 0 3.414062.140625 5.058593.40625 15.03125 2.417969 26.507813 15.445312 26.507813 31.160156zm0 0" fill="#f6c7a5"/><path d="m253.859375 249.535156c0 15.710938-11.476563 28.742188-26.507813 31.160156-2.730468-9.929687-4.191406-20.378906-4.191406-31.160156 0-10.785156 1.460938-21.234375 4.191406-31.160156 15.03125 2.417969 26.507813 15.445312 26.507813 31.160156zm0 0" fill="#eaaf8c"/><path d="m233.578125 249.535156c0 6.230469-5.050781 11.28125-11.285156 11.28125-6.230469 0-11.28125-5.050781-11.28125-11.28125 0-6.230468 5.050781-11.28125 11.28125-11.28125 6.234375 0 11.285156 5.050782 11.285156 11.28125zm0 0" fill="#eaaf8c"/><path d="m443.144531 249.535156c0 15.710938 11.476563 28.742188 26.507813 31.160156 1.644531.265626 3.332031.402344 5.058594.402344 17.4375 0 31.5625-14.125 31.5625-31.5625s-14.125-31.566406-31.5625-31.566406c-1.726563 0-3.414063.140625-5.058594.40625-15.03125 2.417969-26.507813 15.445312-26.507813 31.160156zm0 0" fill="#f6c7a5"/><path d="m443.144531 249.535156c0 15.710938 11.476563 28.742188 26.507813 31.160156 2.730468-9.929687 4.191406-20.378906 4.191406-31.160156 0-10.785156-1.457031-21.234375-4.191406-31.160156-15.03125 2.417969-26.507813 15.445312-26.507813 31.160156zm0 0" fill="#eaaf8c"/><path d="m485.992188 249.535156c0 6.230469-5.050782 11.28125-11.28125 11.28125-6.230469 0-11.28125-5.050781-11.28125-11.28125 0-6.230468 5.050781-11.28125 11.28125-11.28125 6.230468 0 11.28125 5.050782 11.28125 11.28125zm0 0" fill="#eaaf8c"/><path d="m465.945312 188.039062v44.722657c0 58.441406-42.695312 106.925781-98.597656 115.921875-.1875.03125-.386718.0625-.574218.09375-5.945313.949218-12.046876 1.421875-18.277344 1.421875-64.855469 0-117.433594-52.582031-117.433594-117.4375v-44.722657c0-13.65625 2.328125-26.78125 6.632812-38.972656 16.0625-45.707031 59.613282-78.472656 110.800782-78.472656h.011718c6.21875 0 12.328126.480469 18.285157 1.421875 56.175781 8.777344 99.152343 57.382813 99.152343 116.023437zm0 0" fill="#eaaf8c"/><path d="m465.945312 188.039062v44.722657c0 58.441406-42.695312 106.925781-98.597656 115.921875-.1875.03125-.386718.0625-.574218.09375-56.175782-8.777344-99.140626-57.386719-99.140626-116.015625v-44.722657c0-58.640624 42.976563-107.246093 99.160157-116.023437 56.175781 8.777344 99.152343 57.382813 99.152343 116.023437zm0 0" fill="#f6c7a5"/><path d="m428.4375 263.597656c0 8.078125-6.550781 14.628906-14.628906 14.628906s-14.628906-6.550781-14.628906-14.628906c0-8.082031 6.550781-14.628906 14.628906-14.628906s14.628906 6.546875 14.628906 14.628906zm0 0" fill="#f4b3a5"/><path d="m297.824219 263.597656c0 8.078125-6.550781 14.628906-14.628907 14.628906-8.078124 0-14.628906-6.550781-14.628906-14.628906 0-8.082031 6.550782-14.628906 14.628906-14.628906 8.078126 0 14.628907 6.546875 14.628907 14.628906zm0 0" fill="#f4b3a5"/><path d="m411.566406 233.292969h-3.324218c-3.488282-5.191407-9.433594-8.609375-16.171876-8.609375-6.742187 0-12.6875 3.417968-16.1875 8.609375h-3.324218c0-10.773438 8.738281-19.507813 19.511718-19.507813 10.769532 0 19.496094 8.734375 19.496094 19.507813zm0 0" fill="#151a1c"/><path d="m324.453125 233.292969h-3.324219c-3.5-5.191407-9.445312-8.609375-16.183594-8.609375-6.738281 0-12.683593 3.417968-16.175781 8.609375h-3.320312c0-10.773438 8.722656-19.507813 19.496093-19.507813 10.773438 0 19.507813 8.734375 19.507813 19.507813zm0 0" fill="#151a1c"/><path d="m361.828125 264.691406h-26.644531c-3.171875 0-5.746094-2.574218-5.746094-5.746094 0-3.175781 2.574219-5.75 5.746094-5.75h26.644531c3.175781 0 5.75 2.574219 5.75 5.75 0 3.171876-2.574219 5.746094-5.75 5.746094zm0 0" fill="#eaaf8c"/><path d="m348.507812 301.050781c-9.835937 0-19.667968-2.464843-28.632812-7.394531-2.527344-1.386719-3.453125-4.5625-2.0625-7.09375 1.390625-2.527344 4.566406-3.449219 7.09375-2.0625 14.777344 8.125 32.421875 8.125 47.199219 0 2.527343-1.386719 5.703125-.464844 7.09375 2.0625 1.390625 2.53125.46875 5.707031-2.0625 7.09375-8.960938 4.929688-18.796875 7.394531-28.628907 7.394531zm0 0" fill="#f74570"/><path d="m419.578125 452.921875c-33.089844 27.523437-73.234375 46.863281-117.320313 54.898437-.011718 0-.011718 0-.019531 0-10.742187 1.964844-21.714843 3.261719-32.875 3.835938 0-3.617188-.007812-7.648438-.007812-12.132812v-21.722657c0-23.375 18.941406-42.320312 42.316406-42.320312 15.800781 0 29.558594 8.664062 36.832031 21.496093 7.273438-12.832031 21.035156-21.496093 36.832032-21.496093 14.078124 0 26.542968 6.867187 34.242187 17.441406zm0 0" fill="#d1e6f2"/><path d="m469.648438 218.375c-50.214844 0-61.3125-87.792969-61.3125-87.792969 0 20.898438-27.660157 40.488281-55.921876 44.71875-42.433593 6.34375-76.039062 39.699219-80.375 82.382813-1.984374 19.664062-.1875 40.183594 8.714844 59.203125 20.417969 43.65625 21.398438 148.15625 2.800782 193.628906-4.691407.511719-9.425782.898437-14.191407 1.140625-4.417969.230469-8.878906.34375-13.363281.34375-1.140625 0-2.265625-.011719-3.40625-.019531-17.429688-.230469-34.441406-2.195313-50.867188-5.75 2.269532-67.195313-.425781-181.359375-11-256.699219-19.855468-141.542969 67.917969-186.554688 140.015626-195.960938 72.097656-9.402343 87.769531 40.753907 87.769531 40.753907 60.605469-14.628907 73.144531 124.050781 51.136719 124.050781zm0 0" fill="#ffe96e"/><path d="m249.238281 249.53125c15.707031 111.917969-1.671875 206.167969 3.355469 262.449219-17.429688-.230469-34.441406-2.195313-50.867188-5.75 2.269532-67.195313-.425781-181.359375-11-256.699219-19.855468-141.542969 67.917969-186.554688 140.015626-195.960938 17.941406-2.339843 32.390624-.992187 43.980468 2.363282-68.746094 13.449218-144.019531 61.460937-125.484375 193.597656zm0 0" fill="#ffb93b"/><path d="m495.921875 278.710938c0 4.957031-4.019531 8.976562-8.976563 8.976562-4.957031 0-8.972656-4.019531-8.972656-8.976562 0-4.957032 4.015625-8.972657 8.972656-8.972657 4.957032 0 8.976563 4.015625 8.976563 8.972657zm0 0" fill="#f74570"/><path d="m265.816406 188.039062v44.722657c0 58.441406-42.695312 106.925781-98.597656 115.921875-.1875.03125-.386719.0625-.574219.09375-5.945312.949218-12.046875 1.421875-18.273437 1.421875-64.859375 0-117.4375-52.582031-117.4375-117.4375v-44.722657c0-13.65625 2.328125-26.78125 6.632812-38.972656 16.0625-45.707031 59.613282-78.472656 110.804688-78.472656h.007812c6.21875 0 12.332032.480469 18.285156 1.421875 56.175782 8.777344 99.152344 57.382813 99.152344 116.023437zm0 0" fill="#d38051"/><path d="m265.816406 188.039062v44.722657c0 58.441406-42.695312 106.925781-98.597656 115.921875-.1875.03125-.386719.0625-.574219.09375-56.171875-8.777344-99.140625-57.386719-99.140625-116.015625v-44.722657c0-58.640624 42.976563-107.246093 99.160156-116.023437 56.175782 8.777344 99.152344 57.382813 99.152344 116.023437zm0 0" fill="#ea9a69"/><path d="m164.046875 297.917969c-9.835937 0-19.667969-2.464844-28.632813-7.394531-2.527343-1.386719-3.453124-4.566407-2.0625-7.09375 1.390626-2.527344 4.566407-3.449219 7.09375-2.0625 14.777344 8.125 32.421876 8.125 47.199219 0 2.527344-1.390626 5.703125-.46875 7.09375 2.0625 1.390625 2.527343.46875 5.707031-2.0625 7.09375-8.960937 4.929687-18.796875 7.394531-28.628906 7.394531zm0 0" fill="#d38051"/><path d="m177.367188 266.78125h-26.644532c-3.171875 0-5.746094-2.570312-5.746094-5.746094 0-3.175781 2.574219-5.746094 5.746094-5.746094h26.644532c3.175781 0 5.75 2.570313 5.75 5.746094 0 3.171875-2.574219 5.746094-5.75 5.746094zm0 0" fill="#d38051"/><path d="m263.28125 224.121094-2.402344-69.832032c-73.507812 24.902344-122.472656 36.65625-153.527344 31.347657 43.53125-8.316407 77.335938-37.34375 78.105469-38.011719-.90625.375-50.53125 20.636719-81.40625 26.769531-14.480469 2.871094-29.183593-4.609375-34.984375-18.191406-.039062-.074219-.070312-.15625-.101562-.230469 0 0-3.628906 62.402344-40.21875 62.402344 0 0-44.941406-152.265625 32.902344-129.277344 0 0 22.519531-20.675781 56.132812-32.433594.125-.042968.25-.082031.386719-.136718.367187-.132813.742187-.257813 1.117187-.375.398438-.125.773438-.25 1.128906-.375 35.546876-11.722656 82.765626-12.945313 128.792969 29.664062 91.429688 84.636719 14.074219 138.679688 14.074219 138.679688zm0 0" fill="#2a3347"/><path d="m104.050781 174.394531c-14.480469 2.871094-29.183593-4.609375-34.980469-18.191406-.042968-.074219-.074218-.15625-.105468-.230469 0 0-3.625 62.402344-40.21875 62.402344 0 0-44.941406-152.265625 32.902344-129.277344 0 0 22.519531-20.675781 56.132812-32.433594-46.132812 16.800782-33.96875 117.730469-13.730469 117.730469zm0 0" fill="#151a1c"/><path d="m227.109375 233.292969h-3.324219c-3.488281-5.191407-9.433594-8.609375-16.171875-8.609375-6.742187 0-12.6875 3.417968-16.1875 8.609375h-3.320312c0-10.773438 8.734375-19.507813 19.507812-19.507813 10.769531 0 19.496094 8.734375 19.496094 19.507813zm0 0" fill="#151a1c"/><path d="m139.996094 233.292969h-3.324219c-3.5-5.191407-9.445313-8.609375-16.183594-8.609375s-12.683593 3.417968-16.175781 8.609375h-3.320312c0-10.773438 8.722656-19.507813 19.496093-19.507813 10.773438 0 19.507813 8.734375 19.507813 19.507813zm0 0" fill="#151a1c"/><path d="m64.144531 249.535156c0 15.714844-4.683593 28.742188-19.714843 31.160156-1.640626.265626-3.332032.40625-5.054688.40625-17.4375 0-31.566406-14.128906-31.566406-31.566406s14.128906-31.566406 31.566406-31.566406c1.722656 0 3.414062.140625 5.054688.40625 15.03125 2.417969 19.714843 15.445312 19.714843 31.160156zm0 0" fill="#ea9a69"/><path d="m65.714844 249.535156c0 15.714844-6.253906 28.742188-21.285156 31.160156-2.730469-9.929687-4.1875-20.375-4.1875-31.160156s1.457031-21.230468 4.1875-31.160156c15.03125 2.417969 21.285156 15.445312 21.285156 31.160156zm0 0" fill="#d38051"/><path d="m50.65625 249.535156c0 6.230469-5.050781 11.28125-11.28125 11.28125s-11.28125-5.050781-11.28125-11.28125c0-6.230468 5.050781-11.28125 11.28125-11.28125s11.28125 5.050782 11.28125 11.28125zm0 0" fill="#d38051"/><g fill="#f74570"><path d="m336.253906 11.902344c-34.445312-34.445313-80.253906 16.828125-80.253906 16.828125s-45.808594-51.273438-80.253906-16.828125c-38.832032 38.832031 24.59375 125.558594 80.253906 142.386718 55.660156-16.828124 119.085938-103.554687 80.253906-142.386718zm0 0"/><path d="m132.753906 73.726562c-15.878906-15.875-36.992187 7.757813-36.992187 7.757813s-21.113281-23.632813-36.992188-7.757813c-17.898437 17.898438 11.335938 57.875 36.992188 65.628907 25.65625-7.753907 54.890625-47.730469 36.992187-65.628907zm0 0"/><path d="m143.085938 15.597656c-8.6875-8.6875-20.242188 4.246094-20.242188 4.246094s-11.554688-12.933594-20.242188-4.246094c-9.792968 9.796875 6.203126 31.671875 20.242188 35.914063 14.039062-4.242188 30.039062-26.117188 20.242188-35.914063zm0 0"/><path d="m456.449219 30.152344c-15.875-15.875-36.988281 7.757812-36.988281 7.757812s-21.117188-23.632812-36.992188-7.757812c-17.898438 17.902344 11.335938 57.875 36.992188 65.632812 25.652343-7.757812 54.890624-47.730468 36.988281-65.632812zm0 0"/></g><path d="m459.554688 402.597656c-.417969.511719-.867188 1.003906-1.347657 1.484375l-7.625 7.617188c-8.089843 8.089843-21.203125 8.089843-29.289062 0l-22.328125-22.328125c-8.089844-8.085938-8.089844-21.203125 0-29.289063l7.617187-7.628906c.480469-.480469.96875-.929687 1.480469-1.347656 8.140625-6.707031 20.199219-6.257813 27.804688 1.347656l22.339843 22.339844c7.609375 7.609375 8.058594 19.667969 1.347657 27.804687zm0 0" fill="#eaaf8c"/><path d="m459.554688 402.597656c-8.136719 6.710938-20.195313 6.261719-27.804688-1.347656l-22.339844-22.339844c-7.605468-7.605468-8.054687-19.664062-1.347656-27.804687 8.140625-6.707031 20.199219-6.257813 27.804688 1.347656l22.339843 22.339844c7.609375 7.609375 8.058594 19.667969 1.347657 27.804687zm0 0" fill="#f6c7a5"/></svg>