<svg xmlns="http://www.w3.org/2000/svg" viewBox="0 0 100 100"><defs><style>.c605493d-8d26-4f94-bd15-80fcad864b1d{fill:#39f;}.\31 3adc4c9-43b2-44cf-a8b5-86c158df6e6b{fill:#fff;}</style></defs><title>stori-logo</title><g id="ff62df84-2c1b-4c17-af7d-fd3708eca367" data-name="Layer 2"><g id="5e5bf786-ad97-4187-8141-15477037dd17" data-name="Layer 1"><path class="c605493d-8d26-4f94-bd15-80fcad864b1d" d="M99.42,38.26A43.41,43.41,0,0,0,90.61,18C75.53-1,43.12-6.45,23.75,8.86,3,25.29-11.75,63.45,12.81,81.09a47.51,47.51,0,0,0,9.31,5.14c-.89,4.15-2.91,11.1-6.83,13.74,0,0,14.73,1.13,20.27-9.77,21.85,4.08,47.8-1.4,57.87-19.51A50.85,50.85,0,0,0,99.42,38.26Z"/><path class="13adc4c9-43b2-44cf-a8b5-86c158df6e6b" d="M70.31,33.18c3.43.75,6.9-1.14,7.73-4.2s-1.28-6.15-4.72-6.9-6.9,1.15-7.73,4.21S66.87,32.44,70.31,33.18Z"/><path class="13adc4c9-43b2-44cf-a8b5-86c158df6e6b" d="M60.25,41h-.07l-16.4-3.35c-3-.65-4.77-3.32-4.05-6A5.63,5.63,0,0,1,46.43,28l7.93,1.71.24.07c3.44.74,6.9-1.14,7.73-4.21s-1.28-6.15-4.72-6.89h0l-8.18-1.77C39.6,14.81,29.66,20.22,27.28,29S31,46.63,40.81,48.75l.07,0,16.4,3.34a4.77,4.77,0,0,1,3.9,5.74,5.41,5.41,0,0,1-6.45,3.5l-8.2-1.77c-3.44-.74-6.9,1.14-7.73,4.21s1.28,6.15,4.72,6.89l8.2,1.77c9.73,2.1,19.55-3.25,21.9-11.92S70,43.1,60.25,41Z"/><ellipse class="13adc4c9-43b2-44cf-a8b5-86c158df6e6b" cx="28.19" cy="61.5" rx="6.4" ry="5.71"/></g></g></svg>